<?xml version="1.0" encoding="utf-8"?>
<!-- Generator: Adobe Illustrator 17.1.0, SVG Export Plug-In . SVG Version: 6.00 Build 0)  -->
<!DOCTYPE svg PUBLIC "-//W3C//DTD SVG 1.0//EN" "http://www.w3.org/TR/2001/REC-SVG-20010904/DTD/svg10.dtd">
<svg version="1.0" id="Layer_1" xmlns="http://www.w3.org/2000/svg" xmlns:xlink="http://www.w3.org/1999/xlink" x="0px" y="0px"
	 viewBox="0 0 60 60" enable-background="new 0 0 60 60" xml:space="preserve">
<g>
	<g>
		<path fill="#28BCB5" d="M42.427,43.456H18.369c-0.338,0-0.613-0.273-0.613-0.611V29.592c0-0.338,0.274-0.611,0.613-0.611
			c0.338,0,0.612,0.273,0.612,0.611v12.641h22.835V29.592c0-0.338,0.274-0.611,0.611-0.611c0.338,0,0.611,0.273,0.611,0.611v13.253
			C43.038,43.184,42.766,43.456,42.427,43.456z"/>
	</g>
	<g>
		<path fill="#28BCB5" d="M15.514,28.368c-0.165,0-0.33-0.065-0.45-0.198c-0.228-0.248-0.212-0.635,0.037-0.863l14.884-13.661
			c0.249-0.226,0.637-0.211,0.865,0.037c0.229,0.249,0.212,0.636-0.038,0.864L15.929,28.209
			C15.811,28.317,15.662,28.368,15.514,28.368z"/>
	</g>
	<g>
		<path fill="#28BCB5" d="M45.486,28.368c-0.149,0-0.296-0.052-0.415-0.159L30.188,14.547c-0.248-0.229-0.265-0.615-0.037-0.864
			c0.229-0.25,0.617-0.264,0.863-0.037L45.9,27.307c0.248,0.229,0.264,0.615,0.036,0.863C45.817,28.303,45.651,28.368,45.486,28.368
			z"/>
	</g>
	<g>
		<path fill="#28BCB5" d="M40.917,15.622v7.342c0,0.338-0.273,0.61-0.61,0.61c-0.337,0-0.611-0.272-0.611-0.61v-7.342
			c0-0.336,0.274-0.61,0.611-0.61C40.644,15.012,40.917,15.286,40.917,15.622z"/>
	</g>
	<g>
		<path fill="#28BCB5" d="M37.738,15.622v4.076c0,0.341-0.274,0.615-0.611,0.615s-0.612-0.274-0.612-0.615v-4.076
			c0-0.338,0.275-0.61,0.612-0.61S37.738,15.284,37.738,15.622z"/>
	</g>
	<g>
		<path fill="#28BCB5" d="M40.241,16.235h-2.939c-0.34,0-0.611-0.273-0.611-0.612c0-0.336,0.271-0.61,0.611-0.61h2.939
			c0.337,0,0.612,0.274,0.612,0.61C40.853,15.961,40.579,16.235,40.241,16.235z"/>
	</g>
	
		<circle fill="none" stroke="#28BCB5" stroke-width="1.3" stroke-linecap="round" stroke-linejoin="round" stroke-miterlimit="10" cx="30" cy="30.379" r="27.5"/>
</g>
</svg>
